<svg id="Calque_1" data-name="Calque 1" xmlns="http://www.w3.org/2000/svg" viewBox="0 0 20.4 28.05"><defs><style>.cls-1{fill:#fff;}</style></defs><path class="cls-1" d="M92.79,79.67a10.22,10.22,0,0,0-10.2,10.21c0,4.09,2.48,8.45,4.9,11.84a51.32,51.32,0,0,0,4.85,5.82.65.65,0,0,0,.91,0,51.32,51.32,0,0,0,4.85-5.82c2.42-3.39,4.9-7.75,4.9-11.84A10.22,10.22,0,0,0,92.79,79.67Zm0,1.28a8.92,8.92,0,0,1,8.93,8.93c0,3.56-2.3,7.8-4.66,11.1a40.41,40.41,0,0,1-4.27,5.12A41.75,41.75,0,0,1,88.53,101c-2.36-3.3-4.66-7.54-4.66-11.1A8.92,8.92,0,0,1,92.79,81Z" transform="translate(-82.59 -79.67)"/><path class="cls-1" d="M92.79,85.41a4.47,4.47,0,1,0,4.47,4.47A4.48,4.48,0,0,0,92.79,85.41Zm0,1.28a3.19,3.19,0,1,1-3.18,3.19A3.18,3.18,0,0,1,92.79,86.69Z" transform="translate(-82.59 -79.67)"/></svg>