<?xml version="1.0" encoding="UTF-8"?>
<svg xmlns="http://www.w3.org/2000/svg" xmlns:xlink="http://www.w3.org/1999/xlink" width="21px" height="21px" viewBox="0 0 21 21" version="1.1">
<g id="surface1">
<path style="fill:none;stroke-width:1;stroke-linecap:butt;stroke-linejoin:miter;stroke:rgb(85.098039%,74.901961%,43.921569%);stroke-opacity:1;stroke-miterlimit:4;" d="M 61.632873 30.378936 C 61.632873 13.468763 47.921922 -0.242189 31.011749 -0.242189 C 14.101576 -0.242189 0.390625 13.468763 0.390625 30.378936 C 0.390625 47.289109 14.101576 61.00006 31.011749 61.00006 C 47.921922 61.00006 61.632873 47.289109 61.632873 30.378936 Z M 61.632873 30.378936 " transform="matrix(0.333333,0,0,0.333333,0.166667,0.166667)"/>
<path style=" stroke:none;fill-rule:nonzero;fill:rgb(85.098039%,74.901961%,43.921569%);fill-opacity:1;" d="M 13.835938 10.292969 C 13.835938 8.453125 12.34375 6.960938 10.503906 6.960938 C 8.664062 6.960938 7.167969 8.453125 7.167969 10.292969 C 7.167969 12.132812 8.664062 13.628906 10.503906 13.628906 C 12.34375 13.628906 13.835938 12.132812 13.835938 10.292969 Z M 13.835938 10.292969 "/>
</g>
</svg>
