<?xml version="1.0" encoding="UTF-8"?>
<svg xmlns="http://www.w3.org/2000/svg" xmlns:xlink="http://www.w3.org/1999/xlink" width="25px" height="25px" viewBox="0 0 25 25" version="1.1">
<g id="surface1">
<path style="fill:none;stroke-width:1;stroke-linecap:butt;stroke-linejoin:miter;stroke:rgb(80.784314%,57.647059%,30.588235%);stroke-opacity:1;stroke-miterlimit:4;" d="M 61.63375 30.379844 C 61.63375 13.468281 47.921406 -0.244063 31.009844 -0.244063 C 14.098281 -0.244063 0.385938 13.468281 0.385938 30.379844 C 0.385938 47.291406 14.098281 61.00375 31.009844 61.00375 C 47.921406 61.00375 61.63375 47.291406 61.63375 30.379844 Z M 61.63375 30.379844 " transform="matrix(0.396825,0,0,0.396825,0.198413,0.198413)"/>
<path style=" stroke:none;fill-rule:nonzero;fill:rgb(80.784314%,57.647059%,30.588235%);fill-opacity:1;" d="M 16.472656 12.253906 C 16.472656 10.0625 14.695312 8.285156 12.503906 8.285156 C 10.3125 8.285156 8.535156 10.0625 8.535156 12.253906 C 8.535156 14.445312 10.3125 16.222656 12.503906 16.222656 C 14.695312 16.222656 16.472656 14.445312 16.472656 12.253906 Z M 16.472656 12.253906 "/>
</g>
</svg>
