<svg id="Calque_1" data-name="Calque 1" xmlns="http://www.w3.org/2000/svg" viewBox="0 0 64 44"><defs><style>.cls-1{fill:#fff;}</style></defs><path class="cls-1" d="M125,72H75a7,7,0,0,0-7,7v30a7,7,0,0,0,7,7h50a7,7,0,0,0,7-7V79A7,7,0,0,0,125,72ZM112.49,91.73,130,80.44v26ZM75.13,74h50a5,5,0,0,1,5,4.49l-26.7,17.22a6,6,0,0,1-6.5,0L70.18,78.49A5,5,0,0,1,75.13,74ZM70,80.44l17.51,11.3L70,106.45ZM125.13,114h-50a5,5,0,0,1-5-4.57L89.4,93.27l6.4,4.12a8,8,0,0,0,8.67,0l6.4-4.12,19.22,16.16A5,5,0,0,1,125.13,114Z" transform="translate(-68 -72)"/></svg>