<svg id="Calque_1" data-name="Calque 1" xmlns="http://www.w3.org/2000/svg" viewBox="0 0 49 33.69"><defs><style>.cls-1{fill:#5dc5ea;}</style></defs><path class="cls-1" d="M101.07,114.5h20.42A.51.51,0,0,0,122,114V96.53a.51.51,0,0,0-.51-.51H108.37l8.46-14.43a.5.5,0,0,0,.07-.34.51.51,0,0,0-.5-.44H110a.54.54,0,0,0-.45.25L100.63,96.3a.59.59,0,0,0-.07.26V114A.51.51,0,0,0,101.07,114.5Zm.51-17.8,8.72-14.87h5.21l-8.46,14.43a.54.54,0,0,0-.07.35.5.5,0,0,0,.5.43H121v16.44h-19.4Z" transform="translate(-73 -80.81)"/><path class="cls-1" d="M73.51,114.5H93.93a.51.51,0,0,0,.51-.51V96.53a.51.51,0,0,0-.51-.51H80.81l8.46-14.43a.5.5,0,0,0,.07-.34.52.52,0,0,0-.51-.44H82.44a.52.52,0,0,0-.44.25L73.07,96.3a.48.48,0,0,0-.07.26V114A.51.51,0,0,0,73.51,114.5ZM74,96.7l8.72-14.87h5.2L79.49,96.26a.55.55,0,0,0-.08.35.51.51,0,0,0,.51.43h13.5v16.44H74Z" transform="translate(-73 -80.81)"/></svg>