<svg id="Calque_1" data-name="Calque 1" xmlns="http://www.w3.org/2000/svg" viewBox="0 0 35.95 35.93"><defs><style>.cls-1{fill:#fff;}</style></defs><path class="cls-1" d="M117,100.74a2.8,2.8,0,0,0-1.45-2c-2.24-1.35-4.49-2.68-6.73-4a3.29,3.29,0,0,0-4,.53c-.59.6-1.19,1.21-1.79,1.8a4.81,4.81,0,0,1-1.5-.62,25.19,25.19,0,0,1-7.19-6.8A8.55,8.55,0,0,1,93,87.08c.54-.53,1.07-1.06,1.6-1.6a3.11,3.11,0,0,0,.54-3.73l-1.5-2.84-2.24-4.23a2.9,2.9,0,0,0-2.08-1.59,2.6,2.6,0,0,0-2.24.79c-1.6,1.58-3.25,3.23-4.9,4.9a3.91,3.91,0,0,0-1.06,2.37,10.11,10.11,0,0,0,.23,3.51A24.46,24.46,0,0,0,84.7,92.5a43.64,43.64,0,0,0,7.67,8.86,33.42,33.42,0,0,0,9.61,6.27,17,17,0,0,0,6.2,1.37h.16a4.23,4.23,0,0,0,3-1.21q1.77-1.73,3.52-3.47l1.2-1.2A2.85,2.85,0,0,0,117,100.74Zm-8.75,6a14.73,14.73,0,0,1-5.43-1.2,31.32,31.32,0,0,1-9-5.87,40.57,40.57,0,0,1-7.33-8.44,22.33,22.33,0,0,1-3.08-7.16,8.26,8.26,0,0,1-.21-2.8,1.91,1.91,0,0,1,.5-1.15c1.65-1.66,3.29-3.31,4.88-4.88a.62.62,0,0,1,.43-.2h0a.87.87,0,0,1,.52.49l2.09,4,1.62,3.08a1,1,0,0,1-.18,1.26c-.52.58-1.07,1.14-1.63,1.69a1.89,1.89,0,0,0-.5,1.9,10.1,10.1,0,0,0,1.68,3.32,27.39,27.39,0,0,0,7.77,7.36,6.8,6.8,0,0,0,2.28.94,1.85,1.85,0,0,0,1.74-.54l1.86-1.88a1.18,1.18,0,0,1,1.44-.2q3.38,2,6.74,4a1,1,0,0,1,.45.48.83.83,0,0,1-.33.6l-1.34,1.35-3.37,3.34A2.1,2.1,0,0,1,108.24,106.76Z" transform="translate(-81.05 -73.07)"/></svg>