<?xml version="1.0" standalone="no"?>
<!DOCTYPE svg PUBLIC "-//W3C//DTD SVG 20010904//EN"
 "http://www.w3.org/TR/2001/REC-SVG-20010904/DTD/svg10.dtd">
<svg version="1.0" xmlns="http://www.w3.org/2000/svg"
 width="1986.000000pt" height="328.000000pt" viewBox="0 0 1986.000000 328.000000"
 preserveAspectRatio="xMidYMid meet">

<g transform="translate(0.000000,328.000000) scale(0.100000,-0.100000)"
fill="#5cc5eb" stroke="none">
<path d="M9375 3229 c-286 -30 -484 -156 -659 -419 -52 -78 -98 -168 -374
-730 -286 -582 -580 -990 -1039 -1440 -349 -343 -532 -460 -790 -505 -216 -38
-428 3 -668 128 -293 153 -489 321 -1081 924 -399 407 -538 536 -694 643 -159
108 -288 156 -565 206 -152 28 -439 26 -560 -4 -352 -88 -631 -288 -1271 -914
-244 -239 -323 -301 -458 -357 -279 -116 -653 -111 -1031 14 -72 24 -138 46
-147 50 -10 4 -18 3 -18 -3 0 -13 176 -76 298 -106 173 -44 310 -59 487 -53
177 5 285 27 427 86 140 59 217 120 493 391 371 363 560 527 765 662 377 250
711 298 1209 172 306 -76 488 -214 1038 -784 576 -598 829 -811 1138 -961 430
-208 798 -159 1183 156 132 109 465 442 594 595 201 239 358 462 517 735 77
131 132 240 394 775 129 263 204 379 316 490 93 92 164 139 268 177 125 45
197 56 378 57 152 1 178 -2 245 -22 179 -56 330 -176 526 -417 61 -74 151
-202 334 -470 336 -494 493 -696 725 -934 274 -281 526 -470 828 -622 512
-258 1004 -157 1610 330 231 186 544 492 818 801 464 523 696 764 843 872 370
275 725 235 1221 -137 230 -172 551 -479 744 -710 394 -471 723 -753 1033
-887 145 -63 234 -82 383 -82 151 -1 215 13 344 75 104 49 192 111 289 203
101 96 376 396 362 396 -15 0 -61 -46 -201 -204 -183 -205 -308 -309 -462
-382 -205 -97 -424 -99 -662 -8 -148 57 -288 143 -465 282 -130 102 -441 418
-575 582 -178 219 -461 498 -698 688 -209 168 -449 305 -622 354 -65 18 -105
23 -210 23 -148 0 -200 -12 -332 -77 -207 -103 -369 -259 -1003 -973 -177
-199 -533 -557 -682 -687 -604 -525 -1068 -679 -1553 -517 -251 84 -606 316
-892 584 -252 237 -443 477 -828 1040 -268 393 -349 500 -485 636 -247 250
-431 315 -785 278z"/>
</g>
</svg>
